<svg xmlns="http://www.w3.org/2000/svg" 
    width="64" 
    height="64" 
    viewBox="0 0 640 640" 
    shape-rendering="geometricPrecision" 
    text-rendering="geometricPrecision" 
    image-rendering="optimizeQuality" 
    fill-rule="evenodd" 
    clip-rule="evenodd"
>
    <path d="M43.134 210.676h116.872V72.225c0-27.922 
    22.855-50.776 
    50.777-50.776h378.453c27.921 
    0 50.776 22.854 50.776 50.776v378.453c0 27.922-22.855 
    50.776-50.776 50.776h-181.36v73.95c0 23.752-19.394 
    43.146-43.147 43.146H43.134c-23.752 
    0-43.146-19.394-43.146-43.146V253.82c0-23.752 19.394-43.146 
    43.146-43.146zM160.006 316.74H40.88v226.408c0 18.992 15.52 
    34.512 34.513 34.512h257.082c18.992 0 34.512-15.52 
    34.512-34.512v-41.693H210.783c-27.922 0-50.776-22.855-50.776-50.777V316.74zm431.852-161.778H208.15v257.755c0 
    22.335 18.249 40.583 40.595 40.583h302.531c22.335 0 40.584-18.248 40.584-40.583V154.962z"/>
</svg>